<svg width="100" height="130" viewBox="30 25 60 70" fill="none" xmlns="http://www.w3.org/2000/svg">
<path d="M78.0598 70.9436C73.9581 77.0468 67.869 83.771 59.6628 91.1096C51.4567 83.771 45.3676 77.0468 41.2659 70.9436C36.6301 64.0458 34.6628 58.1695 34.6628 53.2045C34.6628 44.9325 37.2529 38.8228 42.1118 34.3113C47.2559 29.535 53.0378 27.2472 59.6628 27.2472C66.2879 27.2472 72.0698 29.535 77.2139 34.3113C82.0728 38.8228 84.6628 44.9325 84.6628 53.2045C84.6628 58.1695 82.6956 64.0458 78.0598 70.9436Z" fill="white" stroke="black" stroke-width="5"/>
<path d="M57.9775 66.4467V54.9017L47.8652 49.045V60.5899L57.9775 66.4467ZM61.3483 66.4467L71.4607 60.5899V49.045L61.3483 54.9017V66.4467ZM59.6629 51.9944L69.6489 46.2219L59.6629 40.4495L49.677 46.2219L59.6629 51.9944ZM46.1798 63.5393C45.6461 63.2304 45.2317 62.8231 44.9368 62.3174C44.6419 61.8118 44.4944 61.25 44.4944 60.632V47.2332C44.4944 46.6152 44.6419 46.0534 44.9368 45.5478C45.2317 45.0422 45.6461 44.6349 46.1798 44.3259L57.9775 37.5422C58.5112 37.2332 59.073 37.0787 59.6629 37.0787C60.2528 37.0787 60.8146 37.2332 61.3483 37.5422L73.1461 44.3259C73.6798 44.6349 74.0941 45.0422 74.389 45.5478C74.684 46.0534 74.8315 46.6152 74.8315 47.2332V60.632C74.8315 61.25 74.684 61.8118 74.389 62.3174C74.0941 62.8231 73.6798 63.2304 73.1461 63.5393L61.3483 70.3231C60.8146 70.632 60.2528 70.7865 59.6629 70.7865C59.073 70.7865 58.5112 70.632 57.9775 70.3231L46.1798 63.5393Z" fill="black"/>
</svg>
