<svg width="38" height="42" viewBox="0 0 38 42" fill="none" xmlns="http://www.w3.org/2000/svg">
<path d="M16.9167 36.4687V22.1979L4.41667 14.9583V29.2292L16.9167 36.4687ZM21.0833 36.4687L33.5833 29.2292V14.9583L21.0833 22.1979V36.4687ZM19 18.6042L31.3438 11.4687L19 4.33332L6.65625 11.4687L19 18.6042ZM2.33333 32.875C1.67361 32.493 1.16146 31.9896 0.796875 31.3646C0.432292 30.7396 0.25 30.0451 0.25 29.2812V12.7187C0.25 11.9549 0.432292 11.2604 0.796875 10.6354C1.16146 10.0104 1.67361 9.50693 2.33333 9.12499L16.9167 0.739573C17.5764 0.357629 18.2708 0.166656 19 0.166656C19.7292 0.166656 20.4236 0.357629 21.0833 0.739573L35.6667 9.12499C36.3264 9.50693 36.8385 10.0104 37.2031 10.6354C37.5677 11.2604 37.75 11.9549 37.75 12.7187V29.2812C37.75 30.0451 37.5677 30.7396 37.2031 31.3646C36.8385 31.9896 36.3264 32.493 35.6667 32.875L21.0833 41.2604C20.4236 41.6423 19.7292 41.8333 19 41.8333C18.2708 41.8333 17.5764 41.6423 16.9167 41.2604L2.33333 32.875Z" fill="black"/>
</svg>
