<svg width="100" height="130" viewBox="30 25 60 70" fill="none" xmlns="http://www.w3.org/2000/svg">
<path d="M78.0598 70.9436C73.9581 77.0468 67.869 83.771 59.6628 91.1096C51.4567 83.771 45.3676 77.0468 41.2659 70.9436C36.6301 64.0458 34.6628 58.1695 34.6628 53.2045C34.6628 44.9325 37.2529 38.8228 42.1118 34.3113C47.2559 29.535 53.0378 27.2472 59.6628 27.2472C66.2879 27.2472 72.0698 29.535 77.2139 34.3113C82.0728 38.8228 84.6628 44.9325 84.6628 53.2045C84.6628 58.1695 82.6956 64.0458 78.0598 70.9436Z" fill="white" stroke="black" stroke-width="5"/>
<path d="M63.5956 70.1124V66.4007C66.2922 65.6161 68.4645 64.1073 70.1124 61.8742C71.7604 59.6411 72.5844 57.1063 72.5844 54.2697C72.5844 51.4331 71.7604 48.8983 70.1124 46.6652C68.4645 44.4321 66.2922 42.9233 63.5956 42.1387V38.427C67.3109 39.2719 70.3372 41.1655 72.6742 44.1077C75.0113 47.05 76.1799 50.4373 76.1799 54.2697C76.1799 58.1021 75.0113 61.4894 72.6742 64.4317C70.3372 67.3739 67.3109 69.2675 63.5956 70.1124ZM43.8203 59.7467V48.8832H51.0113L60.0001 39.8302V68.7997L51.0113 59.7467H43.8203ZM63.5956 61.5573V46.9821C65.0038 47.6459 66.105 48.6418 66.899 49.9695C67.693 51.2973 68.09 52.7458 68.09 54.315C68.09 55.854 67.693 57.2798 66.899 58.5925C66.105 59.9052 65.0038 60.8935 63.5956 61.5573ZM56.4046 48.6116L52.5394 52.5044H47.4158V56.1256H52.5394L56.4046 60.0183V48.6116Z" fill="black"/>
</svg>
