<svg width="38" height="38" viewBox="0 0 38 38" fill="none" xmlns="http://www.w3.org/2000/svg">
<path d="M23.1667 37.1771V32.9062C26.2917 32.0035 28.809 30.2674 30.7188 27.6979C32.6285 25.1285 33.5833 22.2118 33.5833 18.9479C33.5833 15.684 32.6285 12.7674 30.7188 10.1979C28.809 7.62847 26.2917 5.89236 23.1667 4.98958V0.71875C27.4722 1.69097 30.9792 3.86979 33.6875 7.25521C36.3958 10.6406 37.75 14.5382 37.75 18.9479C37.75 23.3576 36.3958 27.2552 33.6875 30.6406C30.9792 34.026 27.4722 36.2049 23.1667 37.1771ZM0.25 25.25V12.75H8.58333L19 2.33333V35.6667L8.58333 25.25H0.25ZM23.1667 27.3333V10.5625C24.7986 11.3264 26.0747 12.4722 26.9948 14C27.9149 15.5278 28.375 17.1944 28.375 19C28.375 20.7708 27.9149 22.4115 26.9948 23.9219C26.0747 25.4323 24.7986 26.5694 23.1667 27.3333ZM14.8333 12.4375L10.3542 16.9167H4.41667V21.0833H10.3542L14.8333 25.5625V12.4375Z" fill="black"/>
</svg>
