<svg width="56" height="56" viewBox="0 0 56 56" fill="none" xmlns="http://www.w3.org/2000/svg">
<path d="M26.35 19.7501H48.35C47.1125 16.5876 45.2219 13.872 42.6781 11.6032C40.1344 9.3345 37.2125 7.74179 33.9125 6.82512L26.35 19.7501ZM20.025 25.2501L31.025 6.27512C30.5208 6.18346 30.0167 6.11471 29.5125 6.06887C29.0083 6.02304 28.5042 6.00012 28 6.00012C24.975 6.00012 22.1562 6.57304 19.5438 7.71887C16.9312 8.86471 14.6167 10.4001 12.6 12.3251L20.025 25.2501ZM6.6875 33.5001H21.675L10.675 14.5251C9.20833 16.4043 8.0625 18.4782 7.2375 20.747C6.4125 23.0157 6 25.4335 6 28.0001C6 28.9626 6.05729 29.8907 6.17188 30.7845C6.28646 31.6782 6.45833 32.5835 6.6875 33.5001ZM22.0875 49.1751L29.5125 36.2501H7.65C8.8875 39.4126 10.7781 42.1282 13.3219 44.397C15.8656 46.6657 18.7875 48.2585 22.0875 49.1751ZM28 50.0001C31.025 50.0001 33.8438 49.4272 36.4562 48.2814C39.0688 47.1355 41.3833 45.6001 43.4 43.6751L35.975 30.7501L24.975 49.7251C25.4792 49.8168 25.9719 49.8855 26.4531 49.9314C26.9344 49.9772 27.45 50.0001 28 50.0001ZM45.325 41.4751C46.7917 39.596 47.9375 37.522 48.7625 35.2532C49.5875 32.9845 50 30.5668 50 28.0001C50 27.0376 49.9427 26.1095 49.8281 25.2157C49.7135 24.322 49.5417 23.4168 49.3125 22.5001H34.325L45.325 41.4751ZM28 55.5001C24.2417 55.5001 20.6896 54.7782 17.3438 53.3345C13.9979 51.8907 11.076 49.9199 8.57812 47.422C6.08021 44.9241 4.10938 42.0022 2.66563 38.6564C1.22188 35.3105 0.5 31.7585 0.5 28.0001C0.5 24.196 1.22188 20.6324 2.66563 17.3095C4.10938 13.9866 6.08021 11.0762 8.57812 8.57825C11.076 6.08033 13.9979 4.1095 17.3438 2.66575C20.6896 1.222 24.2417 0.500122 28 0.500122C31.8042 0.500122 35.3677 1.222 38.6906 2.66575C42.0135 4.1095 44.924 6.08033 47.4219 8.57825C49.9198 11.0762 51.8906 13.9866 53.3344 17.3095C54.7781 20.6324 55.5 24.196 55.5 28.0001C55.5 31.7585 54.7781 35.3105 53.3344 38.6564C51.8906 42.0022 49.9198 44.9241 47.4219 47.422C44.924 49.9199 42.0135 51.8907 38.6906 53.3345C35.3677 54.7782 31.8042 55.5001 28 55.5001Z" fill="black"/>
</svg>
