<svg fill="white" xmlns="http://www.w3.org/2000/svg" width="75" height="75" viewBox="0 0 70 70">
    <circle cx="34" cy="34" r="31.5" fill="white" stroke="black" stroke-width="5"/>
<path d="M42.5 55C39.9167 55 37.8021 54.3542 36.1562 53.0625C34.5104 51.7708 33.25 49.875 32.375 47.375C31.6667 45.2917 30.9896 43.8333 30.3438 43C29.6979 42.1667 28.2083 40.8333 25.875 39C23.2917 36.9167 21.25 34.5625 19.75 31.9375C18.25 29.3125 17.5 26.1667 17.5 22.5C17.5 17.5417 19.1771 13.3854 22.5312 10.0313C25.8854 6.67708 30.0417 5 35 5C39.9583 5 44.1146 6.67708 47.4688 10.0313C50.8229 13.3854 52.5 17.5417 52.5 22.5H47.5C47.5 18.9583 46.3021 15.9896 43.9062 13.5938C41.5104 11.1979 38.5417 10 35 10C31.4583 10 28.4896 11.1979 26.0938 13.5938C23.6979 15.9896 22.5 18.9583 22.5 22.5C22.5 25.3333 23.0625 27.75 24.1875 29.75C25.3125 31.75 26.9167 33.5417 29 35.125C31.1667 36.7083 32.8542 38.25 34.0625 39.75C35.2708 41.25 36.1667 42.875 36.75 44.625C37.3333 46.4583 38.0312 47.8125 38.8438 48.6875C39.6562 49.5625 40.875 50 42.5 50C43.875 50 45.0521 49.5104 46.0312 48.5313C47.0104 47.5521 47.5 46.375 47.5 45H52.5C52.5 47.75 51.5208 50.1042 49.5625 52.0625C47.6042 54.0208 45.25 55 42.5 55ZM15.5 41.875C13.0417 39.375 11.0938 36.4688 9.65625 33.1563C8.21875 29.8438 7.5 26.2917 7.5 22.5C7.5 18.6667 8.21875 15.0833 9.65625 11.75C11.0938 8.41667 13.0417 5.5 15.5 3L19.125 6.5C17.0417 8.58333 15.4167 10.9896 14.25 13.7188C13.0833 16.4479 12.5 19.375 12.5 22.5C12.5 25.5833 13.0833 28.4792 14.25 31.1875C15.4167 33.8958 17.0417 36.2917 19.125 38.375L15.5 41.875ZM35 28.75C33.25 28.75 31.7708 28.1354 30.5625 26.9063C29.3542 25.6771 28.75 24.2083 28.75 22.5C28.75 20.75 29.3542 19.2708 30.5625 18.0625C31.7708 16.8542 33.25 16.25 35 16.25C36.75 16.25 38.2292 16.8542 39.4375 18.0625C40.6458 19.2708 41.25 20.75 41.25 22.5C41.25 24.2083 40.6458 25.6771 39.4375 26.9063C38.2292 28.1354 36.75 28.75 35 28.75Z" fill="black"/>
</svg>
