<svg width="60" height="60" viewBox="0 0 60 60" fill="none" xmlns="http://www.w3.org/2000/svg">
<path d="M30 40C27.25 40 24.8958 39.0208 22.9375 37.0625C20.9792 35.1042 20 32.75 20 30C20 27.25 20.9792 24.8958 22.9375 22.9375C24.8958 20.9792 27.25 20 30 20C32.75 20 35.1042 20.9792 37.0625 22.9375C39.0208 24.8958 40 27.25 40 30C40 32.75 39.0208 35.1042 37.0625 37.0625C35.1042 39.0208 32.75 40 30 40ZM30 35C31.375 35 32.5521 34.5104 33.5312 33.5312C34.5104 32.5521 35 31.375 35 30C35 28.625 34.5104 27.4479 33.5312 26.4688C32.5521 25.4896 31.375 25 30 25C28.625 25 27.4479 25.4896 26.4688 26.4688C25.4896 27.4479 25 28.625 25 30C25 31.375 25.4896 32.5521 26.4688 33.5312C27.4479 34.5104 28.625 35 30 35ZM12.5 52.5C11.125 52.5 9.94792 52.0104 8.96875 51.0312C7.98958 50.0521 7.5 48.875 7.5 47.5V37.5H12.5V47.5H22.5V52.5H12.5ZM37.5 52.5V47.5H47.5V37.5H52.5V47.5C52.5 48.875 52.0104 50.0521 51.0312 51.0312C50.0521 52.0104 48.875 52.5 47.5 52.5H37.5ZM7.5 22.5V12.5C7.5 11.125 7.98958 9.94792 8.96875 8.96875C9.94792 7.98958 11.125 7.5 12.5 7.5H22.5V12.5H12.5V22.5H7.5ZM47.5 22.5V12.5H37.5V7.5H47.5C48.875 7.5 50.0521 7.98958 51.0312 8.96875C52.0104 9.94792 52.5 11.125 52.5 12.5V22.5H47.5Z" fill="black"/>
</svg>
