<svg width="38" height="38" viewBox="0 0 38 38" fill="none" xmlns="http://www.w3.org/2000/svg">
<path d="M12.75 37.75H4.41667C3.27083 37.75 2.28993 37.342 1.47396 36.526C0.657986 35.7101 0.25 34.7292 0.25 33.5833V19C0.25 16.3958 0.744792 13.9566 1.73438 11.6823C2.72396 9.40799 4.06076 7.42882 5.74479 5.74479C7.42882 4.06076 9.40799 2.72396 11.6823 1.73437C13.9566 0.744791 16.3958 0.25 19 0.25C21.6042 0.25 24.0434 0.744791 26.3177 1.73437C28.592 2.72396 30.5712 4.06076 32.2552 5.74479C33.9392 7.42882 35.276 9.40799 36.2656 11.6823C37.2552 13.9566 37.75 16.3958 37.75 19V33.5833C37.75 34.7292 37.342 35.7101 36.526 36.526C35.7101 37.342 34.7292 37.75 33.5833 37.75H25.25V21.0833H33.5833V19C33.5833 14.9375 32.1684 11.4913 29.3385 8.66146C26.5087 5.8316 23.0625 4.41667 19 4.41667C14.9375 4.41667 11.4913 5.8316 8.66146 8.66146C5.8316 11.4913 4.41667 14.9375 4.41667 19V21.0833H12.75V37.75ZM8.58333 25.25H4.41667V33.5833H8.58333V25.25ZM29.4167 25.25V33.5833H33.5833V25.25H29.4167Z" fill="black"/>
</svg>
