<svg width="55" height="56" viewBox="0 0 55 56" fill="none" xmlns="http://www.w3.org/2000/svg">
<path d="M36.6667 55.5001L18.3333 49.0835L4.125 54.5835C3.10648 54.9909 2.16435 54.8763 1.29861 54.2397C0.43287 53.6031 0 52.7501 0 51.6807V8.9029C0 8.24086 0.190972 7.65521 0.572917 7.14596C0.954861 6.6367 1.47685 6.25475 2.13889 6.00012L18.3333 0.500122L36.6667 6.91679L50.875 1.41679C51.8935 1.00938 52.8356 1.12396 53.7014 1.76054C54.5671 2.39711 55 3.25012 55 4.31957V47.0973C55 47.7594 54.809 48.345 54.4271 48.8543C54.0451 49.3635 53.5231 49.7455 52.8611 50.0001L36.6667 55.5001ZM33.6111 48.014V12.264L21.3889 7.98623V43.7362L33.6111 48.014ZM39.7222 48.014L48.8889 44.9585V8.75012L39.7222 12.264V48.014ZM6.11111 47.2501L15.2778 43.7362V7.98623L6.11111 11.0418V47.2501Z" fill="white"/>
</svg>
