<svg width="60" height="60" viewBox="0 0 60 60" fill="none" xmlns="http://www.w3.org/2000/svg">
<path d="M17.5 57.5L24.5 22.25L20 24V32.5H15V20.75L27.625 15.375C28.2083 15.125 28.8229 14.9792 29.4688 14.9375C30.1146 14.8958 30.7292 14.9792 31.3125 15.1875C31.8958 15.3958 32.4479 15.6875 32.9688 16.0625C33.4896 16.4375 33.9167 16.9167 34.25 17.5L36.75 21.5C37.8333 23.25 39.3021 24.6875 41.1562 25.8125C43.0104 26.9375 45.125 27.5 47.5 27.5V32.5C44.5833 32.5 41.9792 31.8958 39.6875 30.6875C37.3958 29.4792 35.4375 27.9375 33.8125 26.0625L32.25 33.75L37.5 38.75V57.5H32.5V41.25L27.25 37.25L22.75 57.5H17.5ZM33.75 13.75C32.375 13.75 31.1979 13.2604 30.2188 12.2812C29.2396 11.3021 28.75 10.125 28.75 8.75C28.75 7.375 29.2396 6.19792 30.2188 5.21875C31.1979 4.23958 32.375 3.75 33.75 3.75C35.125 3.75 36.3021 4.23958 37.2812 5.21875C38.2604 6.19792 38.75 7.375 38.75 8.75C38.75 10.125 38.2604 11.3021 37.2812 12.2812C36.3021 13.2604 35.125 13.75 33.75 13.75Z" fill="black"/>
</svg>
