<svg width="56" height="56" viewBox="0 0 56 56" fill="none" xmlns="http://www.w3.org/2000/svg">
<path d="M27.696 44.6668C28.6585 44.6668 29.472 44.3345 30.1366 43.6699C30.8012 43.0054 31.1335 42.1918 31.1335 41.2293C31.1335 40.2668 30.8012 39.4533 30.1366 38.7887C29.472 38.1241 28.6585 37.7918 27.696 37.7918C26.7335 37.7918 25.92 38.1241 25.2554 38.7887C24.5908 39.4533 24.2585 40.2668 24.2585 41.2293C24.2585 42.1918 24.5908 43.0054 25.2554 43.6699C25.92 44.3345 26.7335 44.6668 27.696 44.6668ZM25.221 34.0793H30.3085C30.3085 32.5668 30.4804 31.3751 30.8241 30.5043C31.1679 29.6335 32.1418 28.4418 33.746 26.9293C34.9377 25.7376 35.8772 24.6033 36.5647 23.5262C37.2522 22.4491 37.596 21.1543 37.596 19.6418C37.596 17.0751 36.6564 15.1043 34.7772 13.7293C32.8981 12.3543 30.6752 11.6668 28.1085 11.6668C25.496 11.6668 23.3762 12.3543 21.7491 13.7293C20.122 15.1043 18.9877 16.7543 18.346 18.6793L22.8835 20.4668C23.1127 19.6418 23.6283 18.7481 24.4304 17.7856C25.2325 16.8231 26.4585 16.3418 28.1085 16.3418C29.5752 16.3418 30.6752 16.7429 31.4085 17.5449C32.1418 18.347 32.5085 19.2293 32.5085 20.1918C32.5085 21.1085 32.2335 21.9679 31.6835 22.7699C31.1335 23.572 30.446 24.3168 29.621 25.0043C27.6043 26.7918 26.3668 28.1439 25.9085 29.0606C25.4502 29.9772 25.221 31.6501 25.221 34.0793ZM27.8335 55.6668C24.0293 55.6668 20.4543 54.9449 17.1085 53.5012C13.7627 52.0574 10.8522 50.0981 8.37725 47.6231C5.90225 45.1481 3.94287 42.2376 2.49912 38.8918C1.05537 35.546 0.333496 31.971 0.333496 28.1668C0.333496 24.3626 1.05537 20.7876 2.49912 17.4418C3.94287 14.096 5.90225 11.1856 8.37725 8.71056C10.8522 6.23556 13.7627 4.27618 17.1085 2.83243C20.4543 1.38868 24.0293 0.666809 27.8335 0.666809C31.6377 0.666809 35.2127 1.38868 38.5585 2.83243C41.9043 4.27618 44.8147 6.23556 47.2897 8.71056C49.7647 11.1856 51.7241 14.096 53.1679 17.4418C54.6116 20.7876 55.3335 24.3626 55.3335 28.1668C55.3335 31.971 54.6116 35.546 53.1679 38.8918C51.7241 42.2376 49.7647 45.1481 47.2897 47.6231C44.8147 50.0981 41.9043 52.0574 38.5585 53.5012C35.2127 54.9449 31.6377 55.6668 27.8335 55.6668ZM27.8335 50.1668C33.9752 50.1668 39.1772 48.0356 43.4397 43.7731C47.7022 39.5106 49.8335 34.3085 49.8335 28.1668C49.8335 22.0251 47.7022 16.8231 43.4397 12.5606C39.1772 8.29806 33.9752 6.16681 27.8335 6.16681C21.6918 6.16681 16.4897 8.29806 12.2272 12.5606C7.96475 16.8231 5.8335 22.0251 5.8335 28.1668C5.8335 34.3085 7.96475 39.5106 12.2272 43.7731C16.4897 48.0356 21.6918 50.1668 27.8335 50.1668Z" fill="white"/>
</svg>
