<svg width="68" height="68" viewBox="0 0 68 68" fill="none" xmlns="http://www.w3.org/2000/svg">
<circle cx="34" cy="34" r="31.5" fill="red" stroke="black" stroke-width="5"/>
<path d="M23.2983 16.488C21.8389 16.488 20.6633 17.2987 19.7715 18.9202C18.8797 20.5417 18.4338 22.3253 18.4338 24.2711C18.4338 26.3142 18.7176 28.1221 19.2851 29.695C19.8526 31.2678 20.3796 32.4434 20.866 33.2217L26.2169 32.1515C26.6385 31.1138 27.0682 29.9301 27.506 28.6005C27.9438 27.2708 28.1627 25.8277 28.1627 24.2711C28.1627 22.3253 27.7168 20.5417 26.825 18.9202C25.9332 17.2987 24.7576 16.488 23.2983 16.488ZM25.9737 41.7831C26.5899 41.7831 27.1088 41.5561 27.5303 41.1021C27.9519 40.6481 28.1627 40.0157 28.1627 39.205C28.1627 38.6537 28.033 38.0861 27.7736 37.5024C27.5141 36.9187 27.2547 36.3998 26.9952 35.9458L22.3254 36.9187C22.3254 38.2159 22.6091 39.3509 23.1766 40.3238C23.7442 41.2967 24.6765 41.7831 25.9737 41.7831ZM44.7019 26.2169C43.2425 26.2169 42.067 27.0276 41.1751 28.6491C40.2833 30.2706 39.8374 32.0542 39.8374 34C39.8374 35.5566 40.0563 36.9916 40.4941 38.305C40.9319 39.6185 41.3616 40.8102 41.7832 41.8804L47.1341 42.9506C47.6205 42.1723 48.1475 41.0048 48.715 39.4482C49.2826 37.8916 49.5663 36.0755 49.5663 34C49.5663 32.0542 49.1204 30.2706 48.2286 28.6491C47.3368 27.0276 46.1612 26.2169 44.7019 26.2169ZM42.0264 51.5121C43.3236 51.5121 44.256 51.0256 44.8235 50.0527C45.391 49.0798 45.6748 47.9448 45.6748 46.6476L41.0049 45.6747C40.7454 46.1287 40.486 46.6476 40.2266 47.2313C39.9671 47.8151 39.8374 48.3826 39.8374 48.9339C39.8374 49.5825 40.0401 50.1743 40.4455 50.7094C40.8508 51.2445 41.3778 51.5121 42.0264 51.5121ZM25.9737 45.6747C23.4766 45.6747 21.5795 44.7505 20.2823 42.902C18.9851 41.0535 18.3689 38.978 18.4338 36.6755L17.5582 35.3621C17.2015 34.8107 16.6096 33.5622 15.7827 31.6164C14.9557 29.6706 14.5422 27.2222 14.5422 24.2711C14.5422 20.9308 15.3692 18.15 17.0231 15.9285C18.677 13.7071 20.7687 12.5964 23.2983 12.5964C26.0548 12.5964 28.2033 13.8206 29.7437 16.2691C31.2841 18.7175 32.0543 21.3848 32.0543 24.2711C32.0543 26.152 31.7948 27.887 31.276 29.4761C30.7571 31.0651 30.3031 32.3461 29.9139 33.319L30.3031 33.9514C30.5625 34.4054 30.9192 35.1269 31.3733 36.116C31.8273 37.1051 32.0543 38.1348 32.0543 39.205C32.0543 41.0535 31.4787 42.5939 30.3274 43.8262C29.1761 45.0585 27.7249 45.6747 25.9737 45.6747ZM42.0264 55.4036C40.2752 55.4036 38.824 54.7875 37.6727 53.5551C36.5215 52.3228 35.9459 50.7824 35.9459 48.9339C35.9459 47.8637 36.1729 46.8341 36.6269 45.845C37.0809 44.8559 37.4376 44.1343 37.6971 43.6803L38.0862 43.0479C37.6971 42.075 37.243 40.794 36.7242 39.205C36.2053 37.6159 35.9459 35.8809 35.9459 34C35.9459 31.1138 36.7161 28.4464 38.2565 25.998C39.7969 23.5495 41.9453 22.3253 44.7019 22.3253C47.2314 22.3253 49.3231 23.436 50.977 25.6575C52.6309 27.8789 53.4579 30.6597 53.4579 34C53.4579 36.9511 53.0444 39.3914 52.2175 41.321C51.3905 43.2506 50.7987 44.491 50.4419 45.0423L49.5663 46.4044C49.5988 48.7069 48.9745 50.7824 47.6935 52.6309C46.4125 54.4794 44.5235 55.4036 42.0264 55.4036Z" fill="black"/>
</svg>
