<svg width="42" height="46" viewBox="0 0 42 46" fill="none" xmlns="http://www.w3.org/2000/svg">
<path d="M9.54175 4.25C7.97925 4.25 6.72057 5.11805 5.76571 6.85417C4.81085 8.59028 4.33342 10.5 4.33342 12.5833C4.33342 14.7708 4.63723 16.7066 5.24487 18.3906C5.85251 20.0747 6.41675 21.3333 6.93758 22.1667L12.6667 21.0208C13.1181 19.9097 13.5782 18.6424 14.047 17.2187C14.5157 15.7951 14.7501 14.25 14.7501 12.5833C14.7501 10.5 14.2727 8.59028 13.3178 6.85417C12.3629 5.11805 11.1042 4.25 9.54175 4.25ZM12.4063 31.3333C13.0661 31.3333 13.6216 31.0903 14.073 30.6042C14.5244 30.1181 14.7501 29.441 14.7501 28.5729C14.7501 27.9826 14.6112 27.375 14.3334 26.75C14.0556 26.125 13.7779 25.5694 13.5001 25.0833L8.50008 26.125C8.50008 27.5139 8.8039 28.7292 9.41154 29.7708C10.0192 30.8125 11.0174 31.3333 12.4063 31.3333ZM32.4584 14.6667C30.8959 14.6667 29.6372 15.5347 28.6824 17.2708C27.7275 19.0069 27.2501 20.9167 27.2501 23C27.2501 24.6667 27.4845 26.2031 27.9532 27.6094C28.422 29.0156 28.882 30.2917 29.3334 31.4375L35.0626 32.5833C35.5834 31.75 36.1477 30.5 36.7553 28.8333C37.3629 27.1667 37.6667 25.2222 37.6667 23C37.6667 20.9167 37.1893 19.0069 36.2345 17.2708C35.2796 15.5347 34.0209 14.6667 32.4584 14.6667ZM29.5938 41.75C30.9827 41.75 31.981 41.2292 32.5886 40.1875C33.1963 39.1458 33.5001 37.9306 33.5001 36.5417L28.5001 35.5C28.2223 35.9861 27.9445 36.5417 27.6667 37.1667C27.389 37.7917 27.2501 38.3993 27.2501 38.9896C27.2501 39.684 27.4671 40.3177 27.9011 40.8906C28.3352 41.4635 28.8994 41.75 29.5938 41.75ZM12.4063 35.5C9.73272 35.5 7.70147 34.5104 6.31258 32.5312C4.92369 30.5521 4.26397 28.3299 4.33342 25.8646L3.39591 24.4583C3.01397 23.8681 2.38029 22.5312 1.49487 20.4479C0.609456 18.3646 0.166748 15.7431 0.166748 12.5833C0.166748 9.00694 1.05216 6.02951 2.823 3.65104C4.59383 1.27257 6.83342 0.0833321 9.54175 0.0833321C12.4931 0.0833321 14.7935 1.3941 16.4428 4.01562C18.0921 6.63715 18.9167 9.49305 18.9167 12.5833C18.9167 14.5972 18.639 16.4549 18.0834 18.1562C17.5279 19.8576 17.0417 21.2292 16.6251 22.2708L17.0417 22.9479C17.3195 23.434 17.7015 24.2066 18.1876 25.2656C18.6737 26.3247 18.9167 27.4271 18.9167 28.5729C18.9167 30.5521 18.3004 32.2014 17.0678 33.5208C15.8352 34.8403 14.2813 35.5 12.4063 35.5ZM29.5938 45.9167C27.7188 45.9167 26.165 45.2569 24.9324 43.9375C23.6997 42.6181 23.0834 40.9687 23.0834 38.9896C23.0834 37.8437 23.3265 36.7413 23.8126 35.6823C24.2987 34.6233 24.6806 33.8507 24.9584 33.3646L25.3751 32.6875C24.9584 31.6458 24.4723 30.2743 23.9167 28.5729C23.3612 26.8715 23.0834 25.0139 23.0834 23C23.0834 19.9097 23.9081 17.0538 25.5574 14.4323C27.2067 11.8108 29.507 10.5 32.4584 10.5C35.1667 10.5 37.4063 11.6892 39.1772 14.0677C40.948 16.4462 41.8334 19.4236 41.8334 23C41.8334 26.1597 41.3907 28.7726 40.5053 30.8385C39.6199 32.9045 38.9862 34.2326 38.6042 34.8229L37.6667 36.2812C37.7015 38.7465 37.0331 40.9687 35.6615 42.9479C34.29 44.9271 32.2674 45.9167 29.5938 45.9167Z" fill="black"/>
</svg>
