<svg width="245" height="208" viewBox="0 0 245 208" fill="none" xmlns="http://www.w3.org/2000/svg">
<path d="M91.0421 0.115459H100.383L91.0421 56H84.8948C83.0586 56 81.4619 54.7226 81.2224 52.9663L72.4406 0.115459H81.7014L86.4117 28.1376L91.0421 0.115459ZM108.382 3.86771C108.382 1.792 109.979 0.115459 112.054 0.115459H132.572C134.648 0.115459 136.244 1.792 136.244 3.86771V52.3276C136.244 54.4033 134.648 56 132.572 56H112.054C109.979 56 108.382 54.4033 108.382 52.3276V3.86771ZM126.983 46.7391V9.45616H117.643V46.7391H126.983ZM162.925 0.115459H172.186V56H165.559C163.963 56 162.606 55.042 162.047 53.5251L153.584 28.0577V56H144.323V0.115459H150.95C152.546 0.115459 153.904 1.15332 154.462 2.67018L162.925 28.1376V0.115459ZM25.5462 76.2751C27.2227 76.6743 28.5001 78.1113 28.5001 79.8677V132H19.1594V114.516C16.3652 116.352 13.2516 117.71 9.81869 118.428V132H0.557823V79.8677C0.557823 77.792 2.15452 76.1155 4.23024 76.1155H24.7478C24.9873 76.1155 25.3067 76.1953 25.5462 76.2751ZM9.81869 108.768C13.7306 107.491 17.0038 104.856 19.1594 101.423V85.4562H9.81869V108.768ZM55.1008 76.1155H64.3616V132H57.7353C56.1386 132 54.7814 131.042 54.2226 129.525L45.7601 104.058V132H36.4992V76.1155H43.1255C44.7222 76.1155 46.0794 77.1533 46.6382 78.6702L55.1008 104.138V76.1155ZM72.4406 76.1155H96.6306C98.7063 76.1155 100.303 77.792 100.303 79.8677V128.328C100.303 130.403 98.7063 132 96.6306 132H72.4406V76.1155ZM91.0421 122.739V85.4562H81.7014V122.739H91.0421ZM136.324 85.4562H117.643V99.4273H136.244V108.768H117.643V122.739H136.244V132H112.054C109.979 132 108.382 130.403 108.382 128.328V79.8677C108.382 77.792 109.979 76.1155 112.054 76.1155H136.324V85.4562ZM169.312 76.2751C170.988 76.6743 172.186 78.1113 172.266 79.8677V103.818C171.148 106.054 169.711 108.129 168.034 110.045L172.266 117.949V132.08H162.925V117.949L161.568 115.394C159.093 116.752 156.458 117.869 153.584 118.428V132.08H144.323V76.1155H168.513C168.753 76.1155 169.072 76.1953 169.312 76.2751ZM153.584 85.4562V108.768C157.496 107.491 160.769 104.856 162.925 101.423V85.4562H153.584ZM208.207 85.4562H189.526V99.4273H208.127V108.768H189.526V122.739H208.127V132H183.937C181.861 132 180.265 130.403 180.265 128.328V79.8677C180.265 77.792 181.861 76.1155 183.937 76.1155H208.207V85.4562ZM234.808 76.1155H244.068V132H237.442C235.845 132 234.488 131.042 233.929 129.525L225.467 104.058V132H216.206V76.1155H222.832C224.429 76.1155 225.786 77.1533 226.345 78.6702L234.808 104.138V76.1155ZM48.3952 161.456L35.6216 198.739H51.0298V208H28.2768C25.7221 208 23.9657 205.525 24.7641 203.13L26.2011 198.739L38.6554 161.456H23.1674V152.115H46.3195C48.8742 152.115 50.7105 154.67 49.8323 157.065L48.3952 161.456ZM87.051 161.456H68.3696V175.427H86.9712V184.768H68.3696V198.739H86.9712V208H62.7811C60.7054 208 59.1087 206.403 59.1087 204.328V155.868C59.1087 153.792 60.7054 152.115 62.7811 152.115H87.051V161.456ZM104.311 208H95.0501V152.115H104.311V208ZM149.561 152.115V161.456H135.59V208H126.329V161.456H112.358V152.115H149.561ZM185.597 161.456H166.916V175.427H185.518V184.768H166.916V198.739H185.518V208H161.328C159.252 208 157.655 206.403 157.655 204.328V155.868C157.655 153.792 159.252 152.115 161.328 152.115H185.597V161.456ZM212.198 152.115H221.459V208H214.833C213.236 208 211.879 207.042 211.32 205.525L202.857 180.058V208H193.596V152.115H200.223C201.82 152.115 203.177 153.153 203.736 154.67L212.198 180.138V152.115Z" fill="#FF0000"/>
</svg>
