<svg width="299" height="29" viewBox="0 0 299 29" fill="none" xmlns="http://www.w3.org/2000/svg">
<path d="M9.32 -1.90735e-06H14L9.32 28H6.24C5.32 28 4.52 27.36 4.4 26.48L2.98023e-08 -1.90735e-06H4.64L7 14.04L9.32 -1.90735e-06ZM18.0078 1.88C18.0078 0.839999 18.8078 -1.90735e-06 19.8478 -1.90735e-06H30.1278C31.1678 -1.90735e-06 31.9678 0.839999 31.9678 1.88V26.16C31.9678 27.2 31.1678 28 30.1278 28H19.8478C18.8078 28 18.0078 27.2 18.0078 26.16V1.88ZM27.3278 23.36V4.68H22.6478V23.36H27.3278ZM45.3356 -1.90735e-06H49.9756V28H46.6556C45.8556 28 45.1756 27.52 44.8956 26.76L40.6556 14V28H36.0156V-1.90735e-06H39.3356C40.1356 -1.90735e-06 40.8156 0.519999 41.0956 1.28L45.3356 14.04V-1.90735e-06ZM75.8403 0.0799994C76.6803 0.279999 77.3203 1 77.3203 1.88V28H72.6403V19.24C71.2403 20.16 69.6803 20.84 67.9603 21.2V28H63.3203V1.88C63.3203 0.839999 64.1203 -1.90735e-06 65.1603 -1.90735e-06H75.4403C75.5603 -1.90735e-06 75.7203 0.0399976 75.8403 0.0799994ZM67.9603 16.36C69.9203 15.72 71.5603 14.4 72.6403 12.68V4.68H67.9603V16.36ZM90.6481 -1.90735e-06H95.2881V28H91.9681C91.1681 28 90.4881 27.52 90.2081 26.76L85.9681 14V28H81.3281V-1.90735e-06H84.6481C85.4481 -1.90735e-06 86.1281 0.519999 86.4081 1.28L90.6481 14.04V-1.90735e-06ZM99.3359 -1.90735e-06H111.456C112.496 -1.90735e-06 113.296 0.839999 113.296 1.88V26.16C113.296 27.2 112.496 28 111.456 28H99.3359V-1.90735e-06ZM108.656 23.36V4.68H103.976V23.36H108.656ZM131.344 4.68H121.984V11.68H131.304V16.36H121.984V23.36H131.304V28H119.184C118.144 28 117.344 27.2 117.344 26.16V1.88C117.344 0.839999 118.144 -1.90735e-06 119.184 -1.90735e-06H131.344V4.68ZM147.872 0.0799994C148.712 0.279999 149.312 1 149.352 1.88V13.88C148.792 15 148.072 16.04 147.232 17L149.352 20.96V28.04H144.672V20.96L143.992 19.68C142.752 20.36 141.432 20.92 139.992 21.2V28.04H135.352V-1.90735e-06H147.472C147.592 -1.90735e-06 147.752 0.0399976 147.872 0.0799994ZM139.992 4.68V16.36C141.952 15.72 143.592 14.4 144.672 12.68V4.68H139.992ZM167.359 4.68H157.999V11.68H167.319V16.36H157.999V23.36H167.319V28H155.199C154.159 28 153.359 27.2 153.359 26.16V1.88C153.359 0.839999 154.159 -1.90735e-06 155.199 -1.90735e-06H167.359V4.68ZM180.687 -1.90735e-06H185.327V28H182.007C181.207 28 180.527 27.52 180.247 26.76L176.007 14V28H171.367V-1.90735e-06H174.687C175.487 -1.90735e-06 176.167 0.519999 176.447 1.28L180.687 14.04V-1.90735e-06ZM211.312 4.68L204.912 23.36H212.632V28H201.232C199.952 28 199.072 26.76 199.472 25.56L200.192 23.36L206.432 4.68H198.672V-1.90735e-06H210.272C211.552 -1.90735e-06 212.472 1.28 212.032 2.48L211.312 4.68ZM230.68 4.68H221.32V11.68H230.64V16.36H221.32V23.36H230.64V28H218.52C217.48 28 216.68 27.2 216.68 26.16V1.88C216.68 0.839999 217.48 -1.90735e-06 218.52 -1.90735e-06H230.68V4.68ZM239.328 28H234.688V-1.90735e-06H239.328V28ZM261.999 -1.90735e-06V4.68H254.999V28H250.359V4.68H243.359V-1.90735e-06H261.999ZM280.055 4.68H270.695V11.68H280.015V16.36H270.695V23.36H280.015V28H267.895C266.855 28 266.055 27.2 266.055 26.16V1.88C266.055 0.839999 266.855 -1.90735e-06 267.895 -1.90735e-06H280.055V4.68ZM293.383 -1.90735e-06H298.023V28H294.703C293.903 28 293.223 27.52 292.943 26.76L288.703 14V28H284.063V-1.90735e-06H287.383C288.183 -1.90735e-06 288.863 0.519999 289.143 1.28L293.383 14.04V-1.90735e-06Z" fill="#FF0000"/>
</svg>
